<?xml version="1.0" standalone="no"?>
<!DOCTYPE svg PUBLIC "-//W3C//DTD SVG 20010904//EN"
 "http://www.w3.org/TR/2001/REC-SVG-20010904/DTD/svg10.dtd">
<svg version="1.0" xmlns="http://www.w3.org/2000/svg"
 width="959.000000pt" height="959.000000pt" viewBox="0 0 959.000000 959.000000"
 preserveAspectRatio="xMidYMid meet">
<metadata>
Created by potrace 1.11, written by Peter Selinger 2001-2013
</metadata>
<g transform="translate(0.000000,959.000000) scale(0.100000,-0.100000)"
fill="#000000" stroke="none">
<path d="M6640 6831 c-43 -15 -68 -33 -114 -83 -98 -105 -103 -122 -146 -478
-35 -285 -67 -438 -107 -513 l-28 -50 -90 5 c-49 3 -126 2 -170 -2 -78 -6 -83
-5 -170 33 -276 121 -320 138 -413 163 -29 8 -69 22 -90 33 -35 17 -152 33
-277 36 -27 1 -108 5 -180 9 -120 6 -143 5 -292 -23 -90 -17 -180 -35 -200
-40 -108 -29 -238 -50 -246 -42 -6 6 -19 26 -31 45 -75 123 -147 201 -236 255
-31 18 -35 26 -35 63 -1 87 -29 285 -47 334 -14 39 -27 55 -57 72 -53 30 -82
28 -166 -14 -53 -26 -94 -57 -155 -119 l-83 -84 -119 6 c-147 7 -223 -7 -393
-72 -86 -34 -115 -40 -115 -27 0 11 -120 109 -148 120 -9 4 -39 20 -65 36 -59
35 -106 32 -175 -11 -93 -58 -115 -168 -68 -351 l24 -93 -34 -42 c-48 -61
-101 -155 -124 -223 -55 -157 -63 -198 -66 -323 l-3 -124 -73 -41 c-44 -25
-102 -70 -147 -115 l-74 -74 6 -116 c3 -64 10 -132 16 -151 5 -19 17 -75 26
-125 9 -49 22 -103 30 -120 19 -42 75 -216 75 -233 0 -8 8 -26 19 -40 10 -15
21 -40 25 -57 4 -16 30 -76 57 -133 27 -57 49 -105 49 -108 0 -5 94 -167 136
-236 16 -25 47 -75 68 -110 22 -34 56 -81 75 -104 46 -52 62 -72 85 -109 35
-54 136 -149 261 -245 26 -19 65 -51 88 -71 23 -20 63 -50 89 -67 25 -18 52
-38 60 -45 13 -13 80 -59 203 -139 181 -118 490 -243 720 -292 44 -9 108 -24
143 -32 182 -43 723 -69 922 -45 52 7 133 14 180 17 183 10 209 12 315 29 125
19 311 68 334 89 9 8 45 19 80 26 59 11 98 25 196 71 22 11 45 19 51 19 32 0
264 112 348 169 40 27 93 58 117 70 24 11 66 35 93 53 66 44 240 218 356 355
91 107 190 248 190 271 0 6 12 24 26 42 47 55 132 198 149 251 10 28 24 63 31
78 8 14 14 33 14 42 0 9 6 22 14 28 8 7 18 26 21 42 4 16 11 31 16 34 5 4 9
14 9 23 0 9 6 29 14 44 8 15 17 42 21 60 4 18 19 60 34 93 36 79 121 334 121
363 0 13 5 33 12 45 6 12 14 48 19 82 4 33 14 91 23 130 21 90 21 159 0 175
-8 8 -21 28 -29 46 -7 18 -26 40 -42 50 -15 9 -41 26 -57 37 -35 24 -221 117
-234 117 -5 0 -52 13 -103 29 -136 42 -389 91 -472 91 -99 0 -122 23 -72 70
14 13 25 33 25 46 0 12 6 27 14 33 7 6 24 42 36 79 13 37 33 90 46 117 30 67
42 108 50 180 3 33 12 84 20 113 18 70 37 371 29 447 -6 46 -13 66 -34 86 -14
15 -37 38 -50 53 -13 14 -31 26 -40 26 -9 0 -25 2 -36 5 -11 3 -45 -4 -75 -14z
m85 -118 c30 -71 13 -405 -30 -578 -34 -143 -111 -357 -142 -397 -5 -7 -12
-20 -15 -28 -20 -55 -279 -330 -311 -330 -18 0 -93 100 -80 108 57 39 141 116
170 156 20 28 46 62 59 76 26 30 69 166 84 270 7 41 18 95 25 120 7 25 16 89
19 142 4 54 11 109 16 124 6 14 10 43 10 64 0 22 5 63 11 92 17 77 51 142 120
226 15 19 46 -2 64 -45z m-3087 -165 c38 -41 45 -76 43 -221 -1 -78 3 -145 9
-156 5 -11 27 -25 47 -31 77 -25 153 -131 214 -295 77 -210 74 -417 -11 -642
-22 -59 -48 -116 -59 -127 -25 -28 -30 -47 -19 -68 11 -22 31 -23 48 -3 7 8
23 15 36 15 17 0 39 20 84 76 33 42 60 84 60 93 0 9 7 29 15 45 8 16 20 61 26
100 5 39 17 108 25 153 12 66 13 102 5 182 -6 55 -12 106 -13 112 -5 21 490
100 642 103 175 3 358 -12 425 -35 33 -11 95 -29 137 -40 43 -10 106 -32 141
-47 35 -16 79 -32 99 -36 20 -4 51 -17 69 -29 19 -12 61 -38 93 -56 33 -18 65
-38 72 -45 6 -6 46 -40 88 -75 76 -64 171 -177 218 -261 27 -47 52 -143 63
-247 7 -62 7 -63 -22 -74 -15 -6 -71 -17 -123 -24 -52 -8 -151 -23 -220 -34
-69 -12 -172 -21 -230 -22 -58 0 -143 -4 -190 -9 -181 -19 -583 -39 -755 -38
-99 1 -225 -1 -280 -5 -55 -3 -199 -3 -319 2 -214 9 -220 9 -237 32 -10 13
-19 31 -19 40 -1 53 -182 183 -269 194 -25 3 -60 10 -77 15 -82 26 -293 7
-370 -33 -33 -18 -117 -95 -160 -148 l-29 -37 -98 14 c-53 7 -106 18 -116 24
-11 5 -37 10 -58 10 -50 1 -122 21 -156 43 -14 9 -29 17 -33 17 -25 0 -84 36
-84 52 0 10 -12 40 -26 67 -26 48 -67 76 -140 96 -16 4 -29 26 -50 83 -75 207
1 529 162 691 40 39 40 44 13 158 -11 48 -23 126 -26 173 -6 97 5 120 57 120
44 0 145 -66 202 -132 32 -37 59 -58 72 -58 28 0 96 19 226 65 97 33 113 36
235 38 71 1 157 0 191 -2 l61 -4 97 94 c89 85 168 149 186 149 3 0 16 -10 28
-22z m2510 -898 c52 0 55 -17 10 -55 -64 -54 -73 -54 -128 0 -57 57 -52 69 25
61 28 -3 69 -6 93 -6z m572 -134 c176 -42 352 -92 430 -121 129 -48 319 -135
348 -161 7 -5 -105 -52 -153 -63 -27 -7 -84 -25 -125 -40 -41 -16 -109 -34
-150 -40 -89 -14 -245 -49 -279 -62 -13 -6 -79 -14 -145 -20 -67 -5 -146 -14
-176 -19 -30 -4 -69 -9 -86 -9 l-31 -1 -6 68 c-3 37 -19 105 -36 151 l-30 83
26 22 c14 11 70 63 124 115 103 99 147 133 164 128 6 -2 62 -16 125 -31z
m-4657 -281 c7 -17 2 -20 -40 -29 -41 -9 -51 9 -16 28 36 19 49 20 56 1z m64
-115 c38 -14 68 -54 77 -104 5 -28 4 -41 -6 -47 -21 -14 -75 -10 -88 6 -9 11
-22 14 -47 9 -25 -5 -39 -2 -53 11 -15 14 -30 16 -65 12 -51 -7 -56 1 -27 47
37 61 134 92 209 66z m1358 -122 c35 -8 62 -23 92 -51 46 -44 81 -102 69 -114
-4 -4 -56 -8 -114 -8 -59 0 -112 -3 -118 -7 -6 -4 -14 -25 -18 -46 -3 -21 -14
-46 -24 -55 -17 -16 -20 -15 -41 8 -22 27 -25 26 -73 -9 -27 -19 -28 -19 -63
0 -20 10 -43 27 -52 37 -22 23 -36 22 -73 -9 -30 -25 -32 -26 -50 -9 -32 29
-36 80 -10 118 29 41 107 104 173 140 50 27 56 28 152 22 55 -3 123 -11 150
-17z m3773 -137 c21 -13 10 -52 -20 -74 -23 -17 -33 -19 -55 -11 -41 14 -38
51 7 75 39 21 49 23 68 10z m-88 -321 c0 -49 -20 -110 -74 -225 -13 -27 -47
-99 -76 -160 -58 -123 -120 -230 -247 -425 -77 -120 -377 -401 -497 -467 -106
-57 -262 -125 -309 -134 -75 -13 -89 -8 -85 33 3 30 7 33 95 64 169 60 340
157 438 249 116 108 226 222 269 280 118 157 154 218 286 485 18 36 38 72 45
80 8 8 22 47 33 85 18 64 31 102 53 163 6 16 17 22 39 22 29 0 30 -1 30 -50z"/>
<path d="M3280 5780 c-8 -5 -29 -10 -46 -10 -42 0 -60 -22 -36 -42 34 -30 77
-37 130 -23 28 7 55 16 61 19 15 9 14 39 -1 54 -14 14 -87 16 -108 2z"/>
<path d="M2593 5719 c-28 -28 29 -69 96 -69 75 0 117 32 85 65 -19 18 -164 21
-181 4z"/>
<path d="M3460 5581 c-45 -9 -60 -18 -60 -37 0 -12 13 -14 78 -9 42 4 82 8 89
10 6 2 27 -1 46 -7 45 -14 87 -4 87 22 0 10 -8 21 -17 23 -29 7 -185 6 -223
-2z"/>
<path d="M2985 5495 c-33 -6 -65 -14 -72 -18 -20 -12 -3 -46 26 -49 21 -2 27
-9 29 -35 4 -39 -21 -89 -47 -98 -13 -4 -35 4 -61 21 -30 20 -44 24 -52 16
-13 -13 11 -56 43 -72 30 -17 91 -14 128 4 29 16 35 16 85 0 65 -20 113 -13
156 22 35 30 37 40 12 53 -12 6 -29 4 -57 -10 -55 -25 -80 -24 -104 7 -31 40
-28 85 9 109 63 42 10 70 -95 50z"/>
<path d="M3455 5477 c-23 -7 -40 -19 -40 -27 0 -12 21 -17 95 -22 52 -4 103
-9 112 -12 9 -2 25 2 35 9 17 13 17 15 -2 34 -26 26 -141 37 -200 18z"/>
<path d="M2481 5470 c-54 -13 -111 -42 -111 -57 0 -23 27 -26 97 -8 43 11 87
15 120 12 41 -4 55 -2 67 12 20 22 20 37 0 45 -21 8 -131 6 -173 -4z"/>
<path d="M2535 5376 c-69 -18 -98 -31 -114 -50 -20 -24 -1 -42 28 -27 11 7 58
14 103 18 113 8 138 22 102 57 -18 19 -50 19 -119 2z"/>
<path d="M3443 5378 c-37 -18 -27 -35 25 -41 27 -3 73 -17 103 -31 44 -20 56
-22 67 -12 16 16 1 60 -26 75 -30 16 -144 22 -169 9z"/>
<path d="M2585 5279 c-62 -10 -125 -38 -125 -56 0 -16 11 -17 42 -3 13 6 52
16 87 24 98 19 94 50 -4 35z"/>
<path d="M5575 2560 c-33 -10 -77 -19 -97 -19 -36 -1 -164 -29 -223 -50 -103
-35 -823 -68 -935 -42 -25 5 -81 11 -125 12 -44 1 -91 5 -105 9 -14 4 -63 17
-110 29 -47 12 -118 32 -157 43 -40 12 -76 19 -79 15 -12 -11 53 -130 88 -163
177 -163 367 -212 833 -215 440 -2 705 51 870 175 52 39 104 94 105 111 0 6 9
21 20 35 11 14 20 37 20 53 0 33 -15 34 -105 7z"/>
</g>
</svg>
